<svg data-v-423bf9ae="" xmlns="http://www.w3.org/2000/svg" viewBox="0 0 625 90" class="iconLeftSlogan"><!----><!----><!----><g data-v-423bf9ae="" id="f45b0075-0de0-4a06-8fbb-b4bf47232ea9" fill="#000000" transform="matrix(4.065040587370328,0,0,4.065040587370328,105.40649631211897,-10.934958935792508)"><path d="M2.60 13.64L1.13 13.64L1.89 3.63L4.38 3.63L6.52 10.03L6.90 11.52L7.04 11.52L7.43 10.03L9.58 3.63L12.13 3.63L12.91 13.64L11.16 13.64L10.69 6.16L10.65 4.60L10.51 4.60L10.10 6.09L7.66 13.44L6.12 13.44L3.66 6.10L3.23 4.60L3.10 4.60L3.06 6.15L2.60 13.64ZM19.04 12.58L19.04 12.58Q18.87 12.73 18.62 12.94Q18.37 13.15 18.06 13.33Q17.76 13.52 17.40 13.65Q17.04 13.78 16.65 13.78L16.65 13.78Q16.24 13.78 15.90 13.63Q15.55 13.49 15.30 13.22Q15.04 12.96 14.89 12.60Q14.75 12.23 14.75 11.79L14.75 11.79Q14.75 11.32 14.93 10.88Q15.12 10.43 15.56 10.08Q16.00 9.73 16.73 9.52Q17.45 9.30 18.52 9.30L18.52 9.30L19.02 9.30L19.02 8.74Q19.02 8.44 18.92 8.20Q18.81 7.96 18.63 7.79Q18.44 7.62 18.19 7.53Q17.93 7.44 17.62 7.44L17.62 7.44Q17.37 7.44 17.09 7.50Q16.81 7.56 16.54 7.66Q16.26 7.77 16.00 7.91Q15.74 8.05 15.54 8.21L15.54 8.21L15.42 8.14L15.10 6.99Q15.93 6.56 16.64 6.41Q17.35 6.26 17.97 6.26L17.97 6.26Q18.61 6.26 19.12 6.39Q19.62 6.52 19.97 6.79Q20.32 7.06 20.50 7.48Q20.68 7.89 20.68 8.46L20.68 8.46L20.68 11.81Q20.68 11.91 20.70 12.03Q20.71 12.15 20.76 12.26Q20.82 12.37 20.91 12.45Q21.01 12.52 21.18 12.52L21.18 12.52Q21.27 12.52 21.41 12.50Q21.55 12.47 21.68 12.41L21.68 12.41L21.68 13.23Q21.31 13.48 20.95 13.63Q20.58 13.78 20.23 13.78L20.23 13.78Q19.96 13.78 19.76 13.68Q19.56 13.58 19.43 13.41Q19.29 13.24 19.20 13.03Q19.11 12.81 19.04 12.58ZM19.02 11.70L19.02 10.11L18.59 10.11Q17.88 10.11 17.44 10.21Q17.01 10.31 16.77 10.48Q16.53 10.66 16.45 10.89Q16.37 11.12 16.37 11.38L16.37 11.38Q16.37 11.66 16.45 11.87Q16.54 12.09 16.68 12.23Q16.82 12.37 17.01 12.45Q17.20 12.52 17.42 12.52L17.42 12.52Q17.58 12.52 17.76 12.49Q17.94 12.45 18.13 12.35Q18.33 12.26 18.55 12.10Q18.76 11.94 19.02 11.70L19.02 11.70ZM23.16 13.64L23.16 6.40L24.50 6.40L24.73 7.64Q24.97 7.42 25.27 7.17Q25.57 6.93 25.93 6.73Q26.28 6.53 26.68 6.40Q27.07 6.26 27.49 6.26L27.49 6.26Q27.99 6.26 28.40 6.45Q28.81 6.64 29.09 6.98Q29.38 7.31 29.54 7.79Q29.70 8.26 29.70 8.82L29.70 8.82L29.70 13.64L28.03 13.64L28.03 9.02Q28.03 8.65 27.93 8.37Q27.83 8.09 27.65 7.90Q27.47 7.72 27.22 7.62Q26.97 7.53 26.68 7.53L26.68 7.53Q26.17 7.53 25.72 7.79Q25.27 8.05 24.81 8.47L24.81 8.47L24.81 13.64L23.16 13.64ZM35.89 12.58L35.89 12.58Q35.71 12.73 35.46 12.94Q35.21 13.15 34.91 13.33Q34.60 13.52 34.24 13.65Q33.89 13.78 33.49 13.78L33.49 13.78Q33.09 13.78 32.74 13.63Q32.40 13.49 32.14 13.22Q31.88 12.96 31.74 12.60Q31.59 12.23 31.59 11.79L31.59 11.79Q31.59 11.32 31.78 10.88Q31.96 10.43 32.41 10.08Q32.85 9.73 33.57 9.52Q34.30 9.30 35.36 9.30L35.36 9.30L35.86 9.30L35.86 8.74Q35.86 8.44 35.76 8.20Q35.66 7.96 35.47 7.79Q35.29 7.62 35.03 7.53Q34.77 7.44 34.46 7.44L34.46 7.44Q34.21 7.44 33.93 7.50Q33.65 7.56 33.38 7.66Q33.11 7.77 32.85 7.91Q32.59 8.05 32.38 8.21L32.38 8.21L32.26 8.14L31.94 6.99Q32.77 6.56 33.48 6.41Q34.19 6.26 34.82 6.26L34.82 6.26Q35.46 6.26 35.96 6.39Q36.46 6.52 36.81 6.79Q37.16 7.06 37.34 7.48Q37.52 7.89 37.52 8.46L37.52 8.46L37.52 11.81Q37.52 11.91 37.54 12.03Q37.56 12.15 37.61 12.26Q37.66 12.37 37.76 12.45Q37.86 12.52 38.02 12.52L38.02 12.52Q38.12 12.52 38.25 12.50Q38.39 12.47 38.53 12.41L38.53 12.41L38.53 13.23Q38.16 13.48 37.79 13.63Q37.43 13.78 37.08 13.78L37.08 13.78Q36.80 13.78 36.61 13.68Q36.41 13.58 36.27 13.41Q36.13 13.24 36.04 13.03Q35.95 12.81 35.89 12.58ZM35.86 11.70L35.86 10.11L35.43 10.11Q34.72 10.11 34.29 10.21Q33.85 10.31 33.61 10.48Q33.37 10.66 33.29 10.89Q33.22 11.12 33.22 11.38L33.22 11.38Q33.22 11.66 33.30 11.87Q33.38 12.09 33.52 12.23Q33.66 12.37 33.85 12.45Q34.04 12.52 34.26 12.52L34.26 12.52Q34.43 12.52 34.60 12.49Q34.78 12.45 34.98 12.35Q35.17 12.26 35.39 12.10Q35.61 11.94 35.86 11.70L35.86 11.70ZM43.65 14.14L41.99 14.14Q41.84 14.23 41.67 14.35Q41.49 14.46 41.35 14.60Q41.20 14.75 41.10 14.91Q41.01 15.08 41.01 15.27L41.01 15.27Q41.01 15.48 41.13 15.65Q41.25 15.83 41.48 15.97Q41.72 16.10 42.07 16.18Q42.42 16.26 42.87 16.26L42.87 16.26Q43.39 16.26 43.79 16.15Q44.19 16.05 44.47 15.88Q44.75 15.70 44.89 15.48Q45.04 15.25 45.04 15.00L45.04 15.00Q45.04 14.79 44.93 14.63Q44.82 14.46 44.63 14.36Q44.44 14.25 44.19 14.19Q43.93 14.14 43.65 14.14L43.65 14.14ZM40.98 14.01L40.98 14.01Q40.51 13.84 40.21 13.57Q39.92 13.30 39.92 12.93L39.92 12.93Q39.92 12.71 40.03 12.50Q40.15 12.30 40.35 12.11Q40.54 11.93 40.79 11.76Q41.04 11.59 41.29 11.44L41.29 11.44Q40.87 11.25 40.57 11.00Q40.27 10.75 40.08 10.45Q39.89 10.14 39.81 9.81Q39.72 9.47 39.72 9.13L39.72 9.13Q39.72 8.48 40.00 7.95Q40.28 7.42 40.75 7.04Q41.21 6.67 41.80 6.46Q42.39 6.26 43.02 6.26L43.02 6.26Q43.49 6.26 43.95 6.38Q44.41 6.49 44.72 6.69L44.72 6.69Q44.94 6.57 45.30 6.48Q45.66 6.40 46.05 6.40L46.05 6.40L47.22 6.40L46.92 7.57L45.45 7.57Q45.49 7.62 45.58 7.73Q45.66 7.85 45.73 8.03Q45.81 8.21 45.87 8.44Q45.92 8.67 45.92 8.93L45.92 8.93Q45.92 9.50 45.65 10.00Q45.38 10.49 44.94 10.86Q44.49 11.22 43.91 11.43Q43.33 11.64 42.72 11.64L42.72 11.64Q42.59 11.64 42.46 11.63Q42.33 11.62 42.20 11.61L42.20 11.61Q42.09 11.68 41.97 11.76Q41.84 11.85 41.74 11.95Q41.64 12.04 41.57 12.16Q41.50 12.28 41.50 12.40L41.50 12.40Q41.50 12.61 41.69 12.74Q41.88 12.87 42.22 12.87L42.22 12.87L44.06 12.87Q44.56 12.87 45.01 12.99Q45.47 13.11 45.81 13.34Q46.16 13.57 46.36 13.90Q46.57 14.23 46.57 14.66L46.57 14.66Q46.57 15.13 46.30 15.62Q46.03 16.12 45.51 16.53Q44.98 16.93 44.21 17.19Q43.44 17.45 42.43 17.45L42.43 17.45Q41.79 17.45 41.24 17.33Q40.69 17.22 40.28 17.01Q39.87 16.80 39.65 16.51Q39.42 16.21 39.42 15.84L39.42 15.84Q39.42 15.51 39.59 15.23Q39.76 14.95 40.00 14.72Q40.25 14.49 40.52 14.31Q40.78 14.13 40.98 14.01ZM41.25 8.91L41.25 8.91Q41.25 9.26 41.37 9.56Q41.49 9.86 41.70 10.08Q41.92 10.30 42.21 10.42Q42.50 10.55 42.85 10.55L42.85 10.55Q43.18 10.55 43.46 10.44Q43.75 10.32 43.96 10.12Q44.17 9.91 44.30 9.62Q44.42 9.33 44.42 8.98L44.42 8.98Q44.42 8.63 44.30 8.33Q44.18 8.04 43.97 7.82Q43.75 7.61 43.46 7.49Q43.16 7.36 42.81 7.36L42.81 7.36Q42.49 7.36 42.20 7.47Q41.92 7.58 41.71 7.78Q41.49 7.98 41.37 8.27Q41.25 8.56 41.25 8.91ZM54.23 12.15L54.23 12.98Q53.93 13.19 53.58 13.34Q53.23 13.49 52.86 13.59Q52.49 13.69 52.13 13.74Q51.76 13.78 51.43 13.78L51.43 13.78Q50.67 13.78 50.02 13.55Q49.37 13.32 48.89 12.87Q48.41 12.41 48.13 11.75Q47.86 11.09 47.86 10.24L47.86 10.24Q47.86 9.33 48.17 8.59Q48.47 7.85 48.99 7.34Q49.51 6.82 50.19 6.54Q50.87 6.26 51.60 6.26L51.60 6.26Q52.22 6.26 52.75 6.46Q53.28 6.67 53.67 7.06Q54.05 7.46 54.27 8.05Q54.49 8.65 54.49 9.43L54.49 9.43Q54.49 9.63 54.47 9.84Q54.46 10.06 54.41 10.26L54.41 10.26L49.57 10.26Q49.57 10.81 49.77 11.24Q49.96 11.66 50.32 11.95Q50.67 12.23 51.17 12.38Q51.67 12.52 52.27 12.52L52.27 12.52Q52.45 12.52 52.67 12.51Q52.90 12.50 53.16 12.46Q53.42 12.41 53.70 12.34Q53.97 12.27 54.23 12.15L54.23 12.15ZM49.57 9.45L52.95 9.45Q52.95 8.96 52.82 8.58Q52.70 8.20 52.48 7.95Q52.26 7.70 51.97 7.57Q51.68 7.44 51.34 7.44L51.34 7.44Q50.97 7.44 50.65 7.59Q50.33 7.75 50.09 8.02Q49.85 8.29 49.71 8.65Q49.57 9.02 49.57 9.45L49.57 9.45ZM56.38 13.64L56.38 6.40L57.72 6.40L57.96 8.56Q58.05 8.38 58.15 8.19Q58.26 8.00 58.36 7.83Q58.46 7.66 58.55 7.51Q58.64 7.37 58.70 7.27L58.70 7.27Q58.84 7.06 59.02 6.87Q59.21 6.69 59.42 6.55Q59.63 6.42 59.88 6.34Q60.12 6.26 60.41 6.26L60.41 6.26Q60.61 6.26 60.81 6.31Q61.00 6.36 61.14 6.46L61.14 6.46L60.96 7.98Q60.84 7.95 60.68 7.94Q60.51 7.93 60.38 7.93L60.38 7.93Q59.94 7.93 59.60 8.06Q59.26 8.18 58.98 8.40Q58.71 8.63 58.48 8.93Q58.25 9.23 58.04 9.58L58.04 9.58L58.04 13.64L56.38 13.64ZM64.65 4.83L64.65 13.64L62.96 13.64L62.96 3.63L65.98 3.63Q66.84 3.63 67.55 3.84Q68.26 4.05 68.77 4.45Q69.28 4.85 69.56 5.43Q69.84 6.01 69.84 6.76L69.84 6.76Q69.84 7.57 69.53 8.20Q69.22 8.84 68.71 9.28Q68.21 9.72 67.56 9.96Q66.91 10.19 66.23 10.19L66.23 10.19Q66.14 10.19 66.05 10.19Q65.95 10.18 65.81 10.16L65.81 10.16L65.91 9.02Q66.01 9.04 66.10 9.04Q66.19 9.04 66.27 9.04L66.27 9.04Q66.68 9.04 67.02 8.91Q67.36 8.77 67.61 8.50Q67.86 8.24 68.00 7.85Q68.14 7.46 68.14 6.96L68.14 6.96Q68.14 6.40 67.98 6.00Q67.81 5.59 67.50 5.33Q67.19 5.07 66.75 4.95Q66.31 4.83 65.75 4.83L65.75 4.83L64.65 4.83ZM71.65 13.64L71.65 2.69L73.30 2.69L73.30 13.64L71.65 13.64ZM79.50 12.58L79.50 12.58Q79.32 12.73 79.07 12.94Q78.82 13.15 78.51 13.33Q78.21 13.52 77.85 13.65Q77.49 13.78 77.10 13.78L77.10 13.78Q76.69 13.78 76.35 13.63Q76.00 13.49 75.75 13.22Q75.49 12.96 75.34 12.60Q75.20 12.23 75.20 11.79L75.20 11.79Q75.20 11.32 75.38 10.88Q75.57 10.43 76.01 10.08Q76.45 9.73 77.18 9.52Q77.90 9.30 78.97 9.30L78.97 9.30L79.47 9.30L79.47 8.74Q79.47 8.44 79.37 8.20Q79.26 7.96 79.08 7.79Q78.89 7.62 78.64 7.53Q78.38 7.44 78.07 7.44L78.07 7.44Q77.82 7.44 77.54 7.50Q77.26 7.56 76.99 7.66Q76.71 7.77 76.45 7.91Q76.19 8.05 75.99 8.21L75.99 8.21L75.87 8.14L75.55 6.99Q76.38 6.56 77.09 6.41Q77.80 6.26 78.42 6.26L78.42 6.26Q79.06 6.26 79.57 6.39Q80.07 6.52 80.42 6.79Q80.77 7.06 80.95 7.48Q81.13 7.89 81.13 8.46L81.13 8.46L81.13 11.81Q81.13 11.91 81.15 12.03Q81.16 12.15 81.21 12.26Q81.27 12.37 81.36 12.45Q81.46 12.52 81.63 12.52L81.63 12.52Q81.72 12.52 81.86 12.50Q82.00 12.47 82.13 12.41L82.13 12.41L82.13 13.23Q81.76 13.48 81.40 13.63Q81.03 13.78 80.68 13.78L80.68 13.78Q80.41 13.78 80.21 13.68Q80.01 13.58 79.88 13.41Q79.74 13.24 79.65 13.03Q79.56 12.81 79.50 12.58ZM79.47 11.70L79.47 10.11L79.04 10.11Q78.33 10.11 77.89 10.21Q77.46 10.31 77.22 10.48Q76.98 10.66 76.90 10.89Q76.82 11.12 76.82 11.38L76.82 11.38Q76.82 11.66 76.90 11.87Q76.99 12.09 77.13 12.23Q77.27 12.37 77.46 12.45Q77.65 12.52 77.87 12.52L77.87 12.52Q78.03 12.52 78.21 12.49Q78.39 12.45 78.58 12.35Q78.78 12.26 79.00 12.10Q79.21 11.94 79.47 11.70L79.47 11.70ZM83.61 13.64L83.61 6.40L84.95 6.40L85.18 7.64Q85.42 7.42 85.72 7.17Q86.02 6.93 86.38 6.73Q86.73 6.53 87.13 6.40Q87.52 6.26 87.94 6.26L87.94 6.26Q88.44 6.26 88.85 6.45Q89.26 6.64 89.54 6.98Q89.83 7.31 89.99 7.79Q90.15 8.26 90.15 8.82L90.15 8.82L90.15 13.64L88.48 13.64L88.48 9.02Q88.48 8.65 88.38 8.37Q88.28 8.09 88.10 7.90Q87.92 7.72 87.67 7.62Q87.42 7.53 87.13 7.53L87.13 7.53Q86.63 7.53 86.17 7.79Q85.72 8.05 85.26 8.47L85.26 8.47L85.26 13.64L83.61 13.64ZM98.36 12.15L98.36 12.98Q98.05 13.19 97.71 13.34Q97.36 13.49 96.99 13.59Q96.62 13.69 96.25 13.74Q95.89 13.78 95.56 13.78L95.56 13.78Q94.80 13.78 94.15 13.55Q93.50 13.32 93.01 12.87Q92.53 12.41 92.26 11.75Q91.98 11.09 91.98 10.24L91.98 10.24Q91.98 9.33 92.29 8.59Q92.60 7.85 93.12 7.34Q93.63 6.82 94.31 6.54Q94.99 6.26 95.73 6.26L95.73 6.26Q96.35 6.26 96.88 6.46Q97.41 6.67 97.79 7.06Q98.18 7.46 98.40 8.05Q98.62 8.65 98.62 9.43L98.62 9.43Q98.62 9.63 98.60 9.84Q98.58 10.06 98.54 10.26L98.54 10.26L93.70 10.26Q93.70 10.81 93.90 11.24Q94.09 11.66 94.45 11.95Q94.80 12.23 95.30 12.38Q95.80 12.52 96.40 12.52L96.40 12.52Q96.57 12.52 96.80 12.51Q97.03 12.50 97.29 12.46Q97.55 12.41 97.82 12.34Q98.10 12.27 98.36 12.15L98.36 12.15ZM93.70 9.45L97.08 9.45Q97.08 8.96 96.95 8.58Q96.82 8.20 96.61 7.95Q96.39 7.70 96.10 7.57Q95.81 7.44 95.47 7.44L95.47 7.44Q95.09 7.44 94.77 7.59Q94.45 7.75 94.21 8.02Q93.97 8.29 93.84 8.65Q93.70 9.02 93.70 9.45L93.70 9.45ZM104.69 4.83L104.69 13.64L102.99 13.64L102.99 4.83L99.74 4.83L99.97 3.63L108.04 3.63L107.82 4.83L104.69 4.83ZM111.36 13.78L111.36 13.78Q110.51 13.78 109.86 13.49Q109.20 13.21 108.76 12.72Q108.32 12.23 108.09 11.59Q107.86 10.94 107.86 10.23L107.86 10.23Q107.86 9.40 108.15 8.68Q108.45 7.96 108.98 7.42Q109.50 6.88 110.24 6.57Q110.97 6.26 111.84 6.26L111.84 6.26Q112.70 6.26 113.35 6.55Q114.01 6.84 114.45 7.33Q114.90 7.82 115.13 8.47Q115.36 9.11 115.36 9.83L115.36 9.83Q115.36 10.66 115.06 11.39Q114.76 12.11 114.23 12.64Q113.70 13.17 112.96 13.48Q112.23 13.78 111.36 13.78ZM111.65 12.60L111.65 12.60Q112.09 12.60 112.45 12.42Q112.81 12.24 113.07 11.91Q113.33 11.59 113.48 11.14Q113.62 10.68 113.62 10.14L113.62 10.14Q113.62 9.60 113.48 9.12Q113.34 8.63 113.07 8.26Q112.81 7.89 112.42 7.67Q112.04 7.44 111.56 7.44L111.56 7.44Q111.11 7.44 110.75 7.63Q110.39 7.81 110.13 8.14Q109.87 8.47 109.73 8.92Q109.59 9.38 109.59 9.92L109.59 9.92Q109.59 10.46 109.73 10.94Q109.87 11.43 110.13 11.80Q110.40 12.17 110.78 12.38Q111.17 12.60 111.65 12.60ZM120.26 13.78L120.26 13.78Q119.41 13.78 118.76 13.49Q118.10 13.21 117.66 12.72Q117.22 12.23 116.99 11.59Q116.76 10.94 116.76 10.23L116.76 10.23Q116.76 9.40 117.05 8.68Q117.35 7.96 117.88 7.42Q118.41 6.88 119.14 6.57Q119.87 6.26 120.74 6.26L120.74 6.26Q121.60 6.26 122.25 6.55Q122.91 6.84 123.35 7.33Q123.80 7.82 124.03 8.47Q124.26 9.11 124.26 9.83L124.26 9.83Q124.26 10.66 123.96 11.39Q123.66 12.11 123.13 12.64Q122.60 13.17 121.86 13.48Q121.13 13.78 120.26 13.78ZM120.55 12.60L120.55 12.60Q120.99 12.60 121.35 12.42Q121.71 12.24 121.97 11.91Q122.23 11.59 122.38 11.14Q122.52 10.68 122.52 10.14L122.52 10.14Q122.52 9.60 122.38 9.12Q122.24 8.63 121.97 8.26Q121.71 7.89 121.32 7.67Q120.94 7.44 120.46 7.44L120.46 7.44Q120.01 7.44 119.65 7.63Q119.29 7.81 119.03 8.14Q118.77 8.47 118.63 8.92Q118.49 9.38 118.49 9.92L118.49 9.92Q118.49 10.46 118.63 10.94Q118.77 11.43 119.03 11.80Q119.30 12.17 119.68 12.38Q120.07 12.60 120.55 12.60ZM126.10 13.64L126.10 2.69L127.76 2.69L127.76 13.64L126.10 13.64Z"></path></g><defs data-v-423bf9ae=""><linearGradient data-v-423bf9ae="" gradientTransform="rotate(25)" id="074cbcdf-1e23-4fd0-9e9a-c6edcc184e81" x1="0%" y1="0%" x2="100%" y2="0%"><stop data-v-423bf9ae="" offset="0%" style="stop-color: rgb(10, 55, 50); stop-opacity: 1;"></stop><stop data-v-423bf9ae="" offset="100%" style="stop-color: rgb(85, 195, 136); stop-opacity: 1;"></stop></linearGradient></defs><g data-v-423bf9ae="" id="9046f888-9067-4148-936c-961a735a6189" transform="matrix(2.8125,0,0,2.8125,0,0)" stroke="none" fill="url(#074cbcdf-1e23-4fd0-9e9a-c6edcc184e81)"><path d="M4.029 14.362L14.362 4.028l.707.707L4.736 15.07zM17.135 27.47L27.47 17.135l.707.707-10.333 10.333zM4.029 17.841l.707-.707 10.333 10.334-.707.707zM17.135 4.735l.708-.707L28.176 14.36l-.707.707z"></path><g><path d="M16 1.414l1.683 1.683L16 4.779l-1.683-1.683L16 1.414M16 0l-3.097 3.097L16 6.194l3.097-3.097L16 0zM16 27.221l1.683 1.683L16 30.586l-1.683-1.683L16 27.221m0-1.415l-3.097 3.097L16 32l3.097-3.097L16 25.806zM3.097 14.317L4.779 16l-1.683 1.683L1.414 16l1.683-1.683m0-1.414L0 16l3.097 3.097L6.194 16l-3.097-3.097zM28.903 14.317L30.586 16l-1.683 1.683L27.221 16l1.682-1.683m0-1.414L25.806 16l3.097 3.097L32 16l-3.097-3.097z"></path></g></g><!----><g data-v-423bf9ae="" id="2323fa95-541c-44c7-a247-10347f50aa62" fill="#000000" transform="matrix(2.1355853146196178,0,0,2.1355853146196178,107.1810267914287,47.86987405624386)"><path d="M1.32 15.68L1.32 5.88L7.25 5.88L7.25 6.97L2.49 6.97L2.49 10.22L7.17 10.22L7.17 11.31L2.49 11.31L2.49 14.59L7.34 14.59L7.34 15.68L1.32 15.68ZM22.67 15.68L21.95 13.24L17.75 13.24L17.04 15.68L15.78 15.68L18.75 5.88L20.96 5.88L23.93 15.68L22.67 15.68ZM19.94 6.38L19.77 6.38L18.07 12.15L21.63 12.15L19.94 6.38ZM37.73 9.21L37.73 8.71Q37.73 8.23 37.54 7.87Q37.35 7.50 37.03 7.27Q36.71 7.03 36.29 6.90Q35.87 6.78 35.41 6.78L35.41 6.78Q35 6.78 34.64 6.88Q34.27 6.99 33.98 7.18Q33.70 7.38 33.53 7.66Q33.36 7.95 33.36 8.33L33.36 8.33L33.36 8.41Q33.36 8.82 33.53 9.11Q33.70 9.39 34.03 9.60Q34.36 9.80 34.85 9.93Q35.34 10.07 35.99 10.16L35.99 10.16Q37.53 10.40 38.26 11.07Q38.99 11.73 38.99 12.85L38.99 12.85L38.99 13.02Q38.99 13.65 38.77 14.17Q38.56 14.70 38.13 15.08Q37.70 15.46 37.07 15.67Q36.44 15.88 35.62 15.88L35.62 15.88Q34.68 15.88 33.96 15.60Q33.24 15.33 32.75 14.85Q32.27 14.36 32.02 13.71Q31.77 13.06 31.77 12.29L31.77 12.29L31.77 11.87L32.94 11.87L32.94 12.21Q32.94 13.50 33.65 14.14Q34.36 14.78 35.62 14.78L35.62 14.78Q36.71 14.78 37.26 14.30Q37.81 13.82 37.81 13.02L37.81 13.02L37.81 12.94Q37.81 12.17 37.25 11.76Q36.68 11.35 35.41 11.17L35.41 11.17Q34.66 11.07 34.07 10.87Q33.47 10.67 33.05 10.34Q32.63 10.01 32.41 9.55Q32.19 9.09 32.19 8.46L32.19 8.46L32.19 8.29Q32.19 7.71 32.42 7.24Q32.66 6.76 33.09 6.41Q33.52 6.06 34.11 5.87Q34.71 5.68 35.42 5.68L35.42 5.68Q36.25 5.68 36.90 5.92Q37.55 6.16 38.00 6.56Q38.44 6.96 38.67 7.50Q38.91 8.04 38.91 8.62L38.91 8.62L38.91 9.21L37.73 9.21ZM50.40 15.68L50.40 12.24L50.15 12.24L47.08 5.88L48.40 5.88L50.90 11.23L51.07 11.23L53.58 5.88L54.89 5.88L51.83 12.24L51.58 12.24L51.58 15.68L50.40 15.68ZM78.68 6.97L78.68 5.88L85.57 5.88L85.57 6.97L82.71 6.97L82.71 15.68L81.54 15.68L81.54 6.97L78.68 6.97ZM94.25 11.87L94.25 9.69Q94.25 7.78 95.16 6.73Q96.07 5.68 97.69 5.68L97.69 5.68Q99.32 5.68 100.23 6.73Q101.14 7.78 101.14 9.69L101.14 9.69L101.14 11.87Q101.14 13.83 100.23 14.85Q99.32 15.88 97.69 15.88L97.69 15.88Q96.07 15.88 95.16 14.85Q94.25 13.83 94.25 11.87L94.25 11.87ZM97.69 14.78L97.69 14.78Q98.83 14.78 99.39 14.01Q99.96 13.23 99.96 11.79L99.96 11.79L99.96 9.77Q99.96 8.43 99.39 7.60Q98.83 6.78 97.69 6.78L97.69 6.78Q96.56 6.78 95.99 7.60Q95.42 8.43 95.42 9.77L95.42 9.77L95.42 11.79Q95.42 13.23 95.99 14.01Q96.56 14.78 97.69 14.78ZM131.14 9.21L131.14 8.71Q131.14 8.23 130.95 7.87Q130.76 7.50 130.44 7.27Q130.12 7.03 129.70 6.90Q129.28 6.78 128.81 6.78L128.81 6.78Q128.41 6.78 128.04 6.88Q127.68 6.99 127.39 7.18Q127.11 7.38 126.94 7.66Q126.77 7.95 126.77 8.33L126.77 8.33L126.77 8.41Q126.77 8.82 126.94 9.11Q127.11 9.39 127.44 9.60Q127.76 9.80 128.25 9.93Q128.74 10.07 129.40 10.16L129.40 10.16Q130.94 10.40 131.67 11.07Q132.40 11.73 132.40 12.85L132.40 12.85L132.40 13.02Q132.40 13.65 132.18 14.17Q131.96 14.70 131.54 15.08Q131.11 15.46 130.48 15.67Q129.85 15.88 129.02 15.88L129.02 15.88Q128.09 15.88 127.36 15.60Q126.64 15.33 126.16 14.85Q125.68 14.36 125.43 13.71Q125.17 13.06 125.17 12.29L125.17 12.29L125.17 11.87L126.35 11.87L126.35 12.21Q126.35 13.50 127.06 14.14Q127.76 14.78 129.02 14.78L129.02 14.78Q130.12 14.78 130.67 14.30Q131.22 13.82 131.22 13.02L131.22 13.02L131.22 12.94Q131.22 12.17 130.66 11.76Q130.09 11.35 128.81 11.17L128.81 11.17Q128.07 11.07 127.48 10.87Q126.88 10.67 126.46 10.34Q126.04 10.01 125.82 9.55Q125.59 9.09 125.59 8.46L125.59 8.46L125.59 8.29Q125.59 7.71 125.83 7.24Q126.07 6.76 126.50 6.41Q126.92 6.06 127.52 5.87Q128.11 5.68 128.83 5.68L128.83 5.68Q129.65 5.68 130.31 5.92Q130.96 6.16 131.40 6.56Q131.85 6.96 132.08 7.50Q132.31 8.04 132.31 8.62L132.31 8.62L132.31 9.21L131.14 9.21ZM140.95 11.87L140.95 9.69Q140.95 7.78 141.86 6.73Q142.77 5.68 144.40 5.68L144.40 5.68Q146.02 5.68 146.93 6.73Q147.84 7.78 147.84 9.69L147.84 9.69L147.84 11.87Q147.84 13.83 146.93 14.85Q146.02 15.88 144.40 15.88L144.40 15.88Q142.77 15.88 141.86 14.85Q140.95 13.83 140.95 11.87L140.95 11.87ZM144.40 14.78L144.40 14.78Q145.53 14.78 146.10 14.01Q146.66 13.23 146.66 11.79L146.66 11.79L146.66 9.77Q146.66 8.43 146.10 7.60Q145.53 6.78 144.40 6.78L144.40 6.78Q143.26 6.78 142.69 7.60Q142.13 8.43 142.13 9.77L142.13 9.77L142.13 11.79Q142.13 13.23 142.69 14.01Q143.26 14.78 144.40 14.78ZM156.90 15.68L156.90 5.88L158.07 5.88L158.07 14.59L163.20 14.59L163.20 15.68L156.90 15.68ZM174.40 15.68L171.63 5.88L172.89 5.88L175.45 15.18L175.62 15.18L178.18 5.88L179.44 5.88L176.67 15.68L174.40 15.68ZM188.13 15.68L188.13 5.88L194.07 5.88L194.07 6.97L189.31 6.97L189.31 10.22L193.98 10.22L193.98 11.31L189.31 11.31L189.31 14.59L194.15 14.59L194.15 15.68L188.13 15.68Z"></path></g></svg>